PathFileType	4	(X/Y/Z)	/Users/itak/Documents/Research/Walk-IL/dataset/trc/00450_00167.trc
DataRate	CameraRate	NumFrames	NumMarkers	Units	OrigDataRate	OrigDataStartFrame	OrigNumFrames
100.000000	100.000000	4	53	mm	100.000000	218	436
Frame#	Time	RPSI			LPSI			L3			STRN			T10			C7			CLAV			RBAK			LBAK			LSHO			LUPA			LAEL			LAOL			LWTS			LWPS			LFRA			LIFD			LHPS			LHTS			RSHO			RUPA			RAEL			RAOL			RWTS			RWPS			RFRA			RIFD			RHTS			RHPS			RBHD			LFHD			RFHD			LBHD			LHIP			RHIP			RASI			LASI			LKNE			LTHI			LANK			LTIP			LTOE			LMT1			LMT5			LHEE			RKNE			RTHI			RANK			RTIP			RTOE			RMT1			RMT5			RHEE			
		X1	Y1	Z1	X2	Y2	Z2	X3	Y3	Z3	X4	Y4	Z4	X5	Y5	Z5	X6	Y6	Z6	X7	Y7	Z7	X8	Y8	Z8	X9	Y9	Z9	X10	Y10	Z10	X11	Y11	Z11	X12	Y12	Z12	X13	Y13	Z13	X14	Y14	Z14	X15	Y15	Z15	X16	Y16	Z16	X17	Y17	Z17	X18	Y18	Z18	X19	Y19	Z19	X20	Y20	Z20	X21	Y21	Z21	X22	Y22	Z22	X23	Y23	Z23	X24	Y24	Z24	X25	Y25	Z25	X26	Y26	Z26	X27	Y27	Z27	X28	Y28	Z28	X29	Y29	Z29	X30	Y30	Z30	X31	Y31	Z31	X32	Y32	Z32	X33	Y33	Z33	X34	Y34	Z34	X35	Y35	Z35	X36	Y36	Z36	X37	Y37	Z37	X38	Y38	Z38	X39	Y39	Z39	X40	Y40	Z40	X41	Y41	Z41	X42	Y42	Z42	X43	Y43	Z43	X44	Y44	Z44	X45	Y45	Z45	X46	Y46	Z46	X47	Y47	Z47	X48	Y48	Z48	X49	Y49	Z49	X50	Y50	Z50	X51	Y51	Z51	X52	Y52	Z52	X53	Y53	Z53	

219	2.18	-199.0511779785156	1001.341674804688	282.2395629882812	-127.2364273071289	1010.430725097656	162.4322662353516	-143.9193572998047	1101.023559570312	228.2376556396484	97.394775390625	1286.5703125	388.4616394042969	-139.3159790039062	1223.51025390625	218.1150970458984	-85.09112548828125	1482.52880859375	268.760986328125	69.25502777099609	1400.959838867188	364.3340148925781	-188.6110076904297	1374.084594726562	303.22216796875	-57.54143142700195	1439.589721679688	167.9792175292969	70.27578735351562	1465.574829101562	165.2238464355469	122.3336410522461	1360.373168945312	73.22480773925781	182.4011535644531	1178.269653320312	49.25114440917969	94.14686584472656	1110.967529296875	51.91552734375	250.9852294921875	1160.62353515625	248.0191192626953	291.4987487792969	1104.063720703125	221.8522796630859	232.1061248779297	1151.802612304688	117.5840530395508	312.6731262207031	1108.718017578125	393.5347595214844	327.7047119140625	1083.159301757812	294.636962890625	302.5470275878906	1146.275512695312	320.4759521484375	-120.863639831543	1461.077392578125	435.9606628417969	-194.4262847900391	1424.097534179688	478.9566345214844	-334.0173645019531	1172.024169921875	478.367919921875	-346.7396240234375	1178.690551757812	412.6712036132812	-338.5118408203125	936.406005859375	451.8550720214844	-423.0315551757812	965.1182250976562	462.7243957519531	-364.4905395507812	1122.222412109375	475.94091796875	-417.8680114746094	807.85693359375	405.1633911132812	-384.3719482421875	846.7958984375	429.3703002929688	-451.7060241699219	883.2496948242188	434.8740234375	-70.23455810546875	1670.582641601562	375.250244140625	119.1573638916016	1694.410888671875	296.0460205078125	59.69180679321289	1702.312622070312	412.1696166992188	-3.080971717834473	1663.039794921875	210.0130157470703	31.1876049041748	893.8733520507812	114.5016250610352	-152.0027618408203	901.0197143554688	466.8731689453125	-39.68965530395508	943.58349609375	447.1358032226562	88.84793090820312	927.9818725585938	230.4044189453125	-41.06540298461914	468.9439086914062	100.039436340332	23.27802276611328	619.6163330078125	119.2764892578125	-335.2433166503906	189.2760162353516	-72.0174560546875	-126.8080139160156	350.6341857910156	31.73557472229004	-279.923583984375	32.9593391418457	69.08576202392578	-316.4869079589844	84.59471893310547	69.4637451171875	-273.9884033203125	64.97027587890625	-32.18072891235352	-373.5570068359375	245.5955505371094	-42.3781852722168	-3.639981508255005	521.1103515625	509.1230773925781	-86.77291870117188	778.6205444335938	512.4743041992188	20.93881607055664	68.15163421630859	493.1610412597656	11.11843872070312	371.6146850585938	526.005859375	219.2805786132812	112.746208190918	571.8057861328125	189.3920440673828	106.8763427734375	507.0296936035156	116.4946060180664	78.32321166992188	579.2841796875	-8.399856567382812	67.74342346191406	416.6484069824219	
220	2.19	-180.21728515625	1001.556884765625	292.9425354003906	-108.2519760131836	1010.658203125	173.3397979736328	-126.7912368774414	1101.449584960938	239.6275329589844	113.3027572631836	1288.003051757812	399.4640502929688	-123.3787689208984	1223.934448242188	229.8397979736328	-70.70706176757812	1482.3837890625	280.7364501953125	84.13496398925781	1402.195190429688	375.6862487792969	-173.8884735107422	1373.259521484375	315.1629943847656	-43.05313873291016	1440.475219726562	180.0073547363281	84.41334533691406	1467.518920898438	177.3934783935547	137.2721710205078	1364.271606445312	84.27362823486328	198.5270080566406	1181.90234375	58.14216232299805	109.7517700195312	1114.958862304688	59.27261734008789	262.5693969726562	1165.164916992188	259.0792236328125	303.4024963378906	1108.236206054688	234.1259613037109	246.6148529052734	1155.618041992188	128.0272216796875	320.176513671875	1113.831420898438	406.4845581054688	337.8512878417969	1087.614624023438	307.9819946289062	312.5621643066406	1151.12744140625	332.8087768554688	-105.8705215454102	1460.475463867188	447.5651245117188	-179.0653839111328	1423.459228515625	490.9176025390625	-317.1218566894531	1170.320434570312	490.3678283691406	-329.9625854492188	1176.955932617188	424.74853515625	-321.0314331054688	933.9874267578125	463.6513366699219	-405.6477661132812	962.5510864257812	474.5177917480469	-347.4087524414062	1120.469116210938	488.1451110839844	-399.5477294921875	805.882568359375	415.2582702636719	-366.7659301757812	845.0341186523438	436.6342468261719	-434.0998229980469	881.4343872070312	442.786376953125	-56.29337692260742	1670.166015625	387.4545288085938	132.8847198486328	1694.917602539062	308.0748596191406	73.54830932617188	1702.305053710938	424.3173217773438	10.72343254089355	1663.375366210938	222.0131378173828	51.16899108886719	894.1388549804688	126.5261917114258	-134.7152404785156	899.5591430664062	476.6309204101562	-21.94842338562012	943.1885986328125	458.8214721679688	107.4470062255859	929.0240478515625	242.5903167724609	-17.19307899475098	467.5093688964844	113.1196212768555	46.05637741088867	619.2584228515625	133.2636108398438	-320.1224670410156	202.6092987060547	-65.61044311523438	-106.7507934570312	352.8044738769531	42.35199737548828	-273.1377563476562	33.74089050292969	69.13422393798828	-306.2463684082031	91.67557525634766	72.2734375	-264.5755004882812	73.53430938720703	-29.94620704650879	-356.7006530761719	258.9203186035156	-34.12973785400391	10.011887550354	517.6078491210938	516.1046752929688	-72.2093505859375	775.27294921875	521.3759765625	47.07285690307617	64.8603515625	506.3887634277344	28.5379467010498	369.2864074707031	535.2427368164062	243.5641174316406	113.030647277832	587.5895385742188	214.5236053466797	106.620231628418	522.3965454101562	141.2245635986328	76.88337707519531	593.7271118164062	18.72744750976562	63.67588043212891	429.5343627929688	
221	2.2	-161.6252746582031	999.9674072265625	303.445556640625	-89.48200225830078	1009.215393066406	183.9742889404297	-109.8443603515625	1100.358154296875	250.8995819091797	129.18310546875	1288.00341796875	410.34228515625	-107.6545104980469	1222.92724609375	241.4844360351562	-56.34698104858398	1481.083251953125	292.8890991210938	99.11469268798828	1402.05419921875	387.0589904785156	-159.2415466308594	1371.077880859375	327.2305908203125	-28.74505615234375	1440.14111328125	192.1419677734375	98.48992156982422	1468.219482421875	189.4977264404297	151.83984375	1366.826782226562	95.18166351318359	214.0758666992188	1183.97216796875	66.66130065917969	124.5930023193359	1117.894653320312	66.54570770263672	274.3218994140625	1167.343139648438	269.287353515625	314.9085693359375	1109.807250976562	245.3435668945312	260.6795043945312	1157.373657226562	137.8196716308594	328.4216918945312	1116.169799804688	418.0811767578125	347.8492736816406	1089.216918945312	320.02294921875	323.0174560546875	1153.269775390625	343.919921875	-90.85401153564453	1458.51220703125	459.4061279296875	-163.6261138916016	1421.238159179688	503.1348876953125	-299.9869995117188	1166.99755859375	503.0525512695312	-313.143310546875	1173.49609375	437.5046081542969	-302.7232360839844	930.017578125	476.4191284179688	-387.4397583007812	958.2223510742188	487.302001953125	-329.9808349609375	1116.995483398438	501.1521911621094	-380.3026733398438	802.0980224609375	426.7137451171875	-348.2228698730469	841.7367553710938	445.0110778808594	-415.5697326660156	877.904052734375	451.8308410644531	-42.44400024414062	1668.598999023438	399.6906127929688	146.46923828125	1694.382202148438	320.0755310058594	87.27568817138672	1701.286254882812	436.4183959960938	24.40419769287109	1662.493896484375	234.0261077880859	71.22264099121094	892.9759521484375	138.6158599853516	-117.6045761108398	896.72314453125	486.3391723632812	-4.457999229431152	941.5381469726562	470.4617919921875	125.9705429077148	928.7688598632812	254.7835845947266	7.668518543243408	464.7434387207031	126.7624664306641	69.55105590820312	617.555908203125	147.7370910644531	-304.3927612304688	215.8896636962891	-58.60865020751953	-85.91368103027344	354.1496887207031	53.43162536621094	-264.5711975097656	36.11344528198242	69.43634796142578	-294.5699157714844	99.24370574951172	75.49473571777344	-253.6575012207031	83.11309051513672	-27.34805107116699	-339.4803466796875	271.9112243652344	-25.24912071228027	24.55554389953613	513.7374267578125	523.8645629882812	-57.34547424316406	771.0853881835938	530.5908813476562	69.15650177001953	61.73652267456055	517.1685791015625	45.31494903564453	366.4476623535156	544.2030029296875	264.1349792480469	111.0399169921875	600.7864379882812	235.9014892578125	104.7114410400391	535.2212524414062	162.0226745605469	74.26423645019531	605.7020874023438	41.73616027832031	60.3827018737793	440.0547180175781	
222	2.21	-143.2901763916016	996.5361938476562	313.7203063964844	-70.89975738525391	1006.043212890625	194.3456726074219	-93.03630065917969	1097.736328125	262.0305480957031	145.0315246582031	1286.5634765625	421.1193237304688	-92.08638763427734	1220.482666015625	253.0235900878906	-41.99486541748047	1478.654052734375	305.2021179199219	114.1923446655273	1400.527954101562	398.4513549804688	-144.6049041748047	1367.602661132812	339.4197387695312	-14.5844898223877	1438.579833984375	204.3858489990234	112.5473556518555	1467.650390625	201.5302276611328	166.0464172363281	1367.986938476562	105.9382476806641	228.9693145751953	1184.535522460938	74.84467315673828	138.6773681640625	1119.71728515625	73.73978424072266	286.2063598632812	1167.150024414062	278.7243041992188	326.1478271484375	1108.90576171875	255.4663391113281	274.276123046875	1157.1806640625	146.9682006835938	337.4225463867188	1115.626342773438	428.4088745117188	357.8789672851562	1088.063842773438	330.7243957519531	333.8791809082031	1152.688842773438	353.9258117675781	-75.82083129882812	1455.207153320312	471.4735107421875	-148.1116790771484	1417.452270507812	515.600830078125	-282.5911865234375	1162.076782226562	516.395263671875	-296.2770385742188	1168.345336914062	450.931396484375	-283.55908203125	924.5380859375	490.0353698730469	-368.3786315917969	952.1549072265625	501.0634765625	-312.1915588378906	1111.821411132812	514.93212890625	-360.1576843261719	796.547607421875	439.3296203613281	-328.7316589355469	836.8914184570312	454.599609375	-396.1043395996094	872.6231689453125	462.1529541015625	-28.67981910705566	1665.913208007812	411.9511413574219	159.9188232421875	1692.807250976562	332.038818359375	100.8859024047852	1699.273315429688	448.461181640625	37.95515060424805	1660.394775390625	246.0554809570312	91.34510803222656	890.390869140625	150.7605743408203	-100.6758880615234	892.5897827148438	496.0473327636719	12.76193141937256	938.6676635742188	482.0327453613281	144.4320831298828	927.2108154296875	266.9889221191406	33.3708381652832	460.8173522949219	140.7449035644531	93.67364501953125	614.5943603515625	162.4979248046875	-287.9362487792969	228.9175872802734	-50.97178649902344	-64.33351135253906	354.8301391601562	64.79720306396484	-253.9620361328125	40.17511367797852	70.26747131347656	-281.3223266601562	107.1350173950195	79.25669860839844	-241.1331024169922	93.37134552001953	-24.22684478759766	-321.70263671875	284.4779052734375	-15.73671436309814	39.9537467956543	509.4744567871094	532.3938598632812	-42.02108383178711	766.1978759765625	540.2127685546875	87.31025695800781	58.40427780151367	525.6251220703125	61.50125122070312	362.8790588378906	552.9097290039062	281.3486633300781	106.6532363891602	611.1847534179688	253.7357177734375	100.9790725708008	545.348876953125	179.1972351074219	70.29470825195312	615.2161865234375	60.60277557373047	57.37762832641602	448.361572265625	
